<svg id="Layer_1" data-name="Layer 1" xmlns="http://www.w3.org/2000/svg" viewBox="0 0 281.47 194.58"><title>dew-logo-new</title><path d="M166.83,53.21C173.16,32,177.7,23.71,177.74,23.63l5.82-10.36-44,20.25,2.78-8.75L102.79,44.67l-2.23,7L67.2,67.34l-0.49.73c-0.78.67-2.47,3-8.32,11.11C48.2,93.32,29.22,119.63,11.75,139.48L0,152.25l44.54-18.34c-5.25,12.91-16.27,39.26-22.7,49.63l-6.86,11L81.63,163.3a52,52,0,0,0,13.6-8.7c0.38-.35.75-0.71,1.11-1.07a15.68,15.68,0,0,0,4.28,0c0.38-.06.76-0.13,1.14-0.21a25.69,25.69,0,0,0,5-1.72l89.15-41.71,0.59-.83c0.45-.63,44.85-63.3,72.95-95.26L281.47,0Z" style="fill:#231f20"/><path d="M23.88,184.8c7.5-12.07,20.88-44.92,25-55.29L9.09,145.91l4.42-4.81C40,112.31,68.32,70,68.61,69.57l0.22-.34,33.7-15.81,2.24-7.06,33.55-16.88-2.7,8.5,42.24-19.44-2.22,3.92c-0.05.1-5.36,9.64-12.6,35.17L272.13,7l-4.55,5.17c-28.12,32-72.66,94.83-73.11,95.46l-0.22.31-88.5,41.41a23.41,23.41,0,0,1-4.53,1.59c-0.31.07-.64,0.13-1,0.18a13.13,13.13,0,0,1-4.78-.16c-0.59.64-1.22,1.28-1.89,1.89a49.69,49.69,0,0,1-13,8.29L21.3,189Z" style="fill:#94c93d"/><path d="M174.39,21.73s-5.75,10.14-13.59,38.53L266.5,11.2c-28.5,32.42-73.2,95.58-73.2,95.58L105.22,148l0,0a22.22,22.22,0,0,1-4.26,1.5q-0.42.09-.86,0.16a11.73,11.73,0,0,1-4.84-.29L95,149.31a29.54,29.54,0,0,1-2.38,2.45,48.61,48.61,0,0,1-12.63,8L25.11,185.57c9.08-14.62,26.41-58.7,26.41-58.7L14.58,142.08c26.84-29.21,55.23-71.71,55.23-71.71l33.91-15.91L106,47.38,135.9,32.32l-2.65,8.34,41.13-18.93m6.91-6.37-8.12,3.73L138,35.28l0.66-2.09,2.08-6.56-6.15,3.1L104.67,44.79l-1.09.55-0.37,1.16-1.86,5.87L68.58,67.75l-0.73.34-0.45.67c-1,0-29.29,42.21-55,71.36l-8.84,9.62,12.08-5,30.59-12.6C41.14,144.87,29.43,173.11,22.65,184l-5.16,8.31,8.86-4.16,54.88-25.76a51.09,51.09,0,0,0,13.36-8.54c0.49-.45,1-0.91,1.41-1.38a14.65,14.65,0,0,0,4.48,0c0.36-.05.72-0.12,1.07-0.2a24.91,24.91,0,0,0,4.78-1.67l0.11-.05,0.08,0,88-41.18,0.69-.33,0.44-.63c0.45-.63,44.94-63.41,73-95.34l9.09-10.34-12.49,5.8L165.32,55c6.72-23,11.54-31.71,11.59-31.8Z" style="fill:#231f20"/><path d="M72.58,71.81L107,55.65l2.27-7.14,21.17-10.66-2.55,8,40-18.5S163.3,38.58,156,65.13l98.59-45.8S239,33.95,191.38,102.66l-87.2,40.8c-2.35,1-4.7,2-7.59,1.21l-0.15,0a5.85,5.85,0,0,1-2-1.15,24.85,24.85,0,0,1-3.78,4.36,45.51,45.51,0,0,1-11.74,7.46L33.79,176.48c9.33-15.78,23.95-57.21,23.95-57.21l-29.8,12.45c11.62-12.24,44.65-59.91,44.65-59.91" style="fill:#f3f3f9"/><path d="M112.66,50.79l10.65-5.36-2.43,7.66,8.38-3.92-2.19,6.91L118.7,60l-5.91,18.62c-0.71,2.26-.69,2.75,1.19,1.88l3.7-1.73a15.4,15.4,0,0,0,4.22-3.13l-3.29,8.57-13.19,6.17c-3.34,1.56-5.52.66-2.73-8.12l5.5-17.35-3.26,1.53,2.19-6.91L110.38,58Z" style="fill:#07703c"/><path d="M143.52,42.46L142.66,46l0.09,0c1.06-2,2.32-4.22,3.89-4.94l8.51-4c4.95-2.31,5.43,1.69,2.93,9.57l-4.56,14.34c-1.54,4.88-1.46,6.06-1.42,7.57l-12.83,6A36.49,36.49,0,0,0,143,65.86l5.5-17.35c0.69-2.18.48-2.72-.81-2.11l-3.83,1.79c-1.3.6-2,1.56-2.66,3.74L135.7,69.27c-1.55,4.88-1.47,6.06-1.42,7.57l-12.83,6a36.31,36.31,0,0,0,3.73-8.65l6.05-19.07c1.55-4.88,1.47-6.06,1.41-7.56Z" style="fill:#07703c"/><path d="M57.14,106.65c-1.23,1.79-2.87,4.34-3.54,5.62a11.76,11.76,0,0,0-1.23,3l-9.94,4.65a112,112,0,0,0,8.63-11.13L74.52,74.87l10.87-5.09L76.75,96.72l0.09,0L93.68,65.91l11-5.14L96.26,87.22c-1.74,5.42-1.82,6.23-2,8.49l-12.39,5.79c0.6-1.11,1.06-1.9,1.6-3.1a36.93,36.93,0,0,0,1.63-4.54l4.75-15.27-0.09,0-14.13,25.8-12.08,5.64,7.18-22.54-0.09,0Z" style="fill:#07703c"/><path d="M61.24,124.27c2.74-6.71,3.44-9.82,2.87-11.8l31-14.32c9-4.21,10.2.17,5.25,14.84l-7,22.94c-2.06,6.79-7.27,11.34-16.28,15.55L44.21,166.87c1.75-3.19,2.9-6,5.52-13Zm5.09,22.17,8.42-3.94c2.65-1.23,3.39-2.44,5-7.28l6-17.68c1.63-4.85,1.58-5.69-1.07-4.44l-7,3.15Z" style="fill:#ed1a37"/><path d="M115.56,116L114,120.92c-1.14,3.76-.64,4.86,1.87,3.68l15-7a23.83,23.83,0,0,0,7.79-5.55l-5.15,13-31.13,14.56c-7,3.28-7.45-.7-4-11.64L105,107.23c3.47-10.93,7-16.77,14-20.05l23.77-11.11c7-3.29,7.45.69,4,11.64l-5.09,16.07Zm14.19-15.37L132,93.48c1-3,.82-4-0.91-3.19l-6.43,3c-1.72.81-2.64,2.28-3.6,5.29l-2.26,7.15Z" style="fill:#ed1a37"/><path d="M214.54,52c1.89-2.69,4.39-6.52,5.41-8.42a17.17,17.17,0,0,0,1.87-4.49l15.54-7.26a167.75,167.75,0,0,0-13.29,16.76L189.14,99l-19.46,9.09,12.88-40.05-0.16.07L155,115l-16.36,7.65,12.53-39.31c2.59-8.06,2.7-9.25,3-12.62l18.41-8.6c-0.89,1.66-1.57,2.83-2.37,4.63a53.13,53.13,0,0,0-2.43,6.73l-7.07,22.7,0.14-.06,23-39.24,21.61-10.1L194.71,80.26l0.17-.07Z" style="fill:#ed1a37"/><path d="M72.58,71.81L107,55.65l2.27-7.14,21.17-10.66-2.55,8,40-18.5S163.3,38.58,156,65.13l98.59-45.8S239,33.95,191.38,102.66l-87.2,40.8c-2.35,1-4.7,2-7.59,1.21l-0.15,0a5.85,5.85,0,0,1-2-1.15,24.85,24.85,0,0,1-3.78,4.36,45.51,45.51,0,0,1-11.74,7.46L33.79,176.49c9.33-15.78,23.95-57.21,23.95-57.21l-29.8,12.45c11.62-12.24,44.65-59.91,44.65-59.91" style="fill:#fff"/><path d="M112.66,50.79l10.65-5.36-2.43,7.66,8.38-3.92-2.19,6.91L118.7,60l-5.91,18.62c-0.71,2.26-.69,2.75,1.19,1.88l3.7-1.73a15.4,15.4,0,0,0,4.22-3.13l-3.29,8.57-13.19,6.17c-3.34,1.56-5.52.66-2.73-8.12l5.5-17.35-3.26,1.53,2.19-6.91L110.38,58Z" style="fill:#07703c"/><path d="M143.52,42.46L142.66,46l0.09,0c1.06-2,2.32-4.22,3.89-4.94l8.51-4c4.95-2.31,5.43,1.69,2.93,9.57l-4.56,14.34c-1.54,4.88-1.46,6.06-1.42,7.57l-12.83,6A36.49,36.49,0,0,0,143,65.86l5.5-17.35c0.69-2.18.48-2.72-.81-2.11l-3.83,1.79c-1.3.6-2,1.56-2.66,3.74L135.7,69.27c-1.55,4.88-1.47,6.06-1.42,7.57l-12.83,6a36.31,36.31,0,0,0,3.73-8.65l6.05-19.08c1.55-4.88,1.47-6.06,1.41-7.56Z" style="fill:#07703c"/><path d="M57.14,106.66c-1.23,1.79-2.87,4.34-3.54,5.62a11.76,11.76,0,0,0-1.23,3l-9.94,4.65a112,112,0,0,0,8.63-11.13L74.52,74.87l10.87-5.09L76.75,96.72l0.09,0L93.68,65.91l11-5.14L96.26,87.22c-1.74,5.42-1.82,6.23-2,8.49L81.85,101.5c0.6-1.11,1.06-1.9,1.6-3.1a36.93,36.93,0,0,0,1.63-4.54l4.75-15.27-0.09,0-14.13,25.8-12.08,5.64,7.18-22.54-0.09,0Z" style="fill:#07703c"/><path d="M61.24,124.27c2.74-6.71,3.44-9.82,2.87-11.8l31-14.32c9-4.21,10.2.17,5.25,14.84l-7,22.94c-2.06,6.79-7.27,11.34-16.28,15.55L44.21,166.88c1.75-3.19,2.9-6,5.52-13Zm5.09,22.17,8.42-3.94c2.65-1.23,3.39-2.44,5-7.28l6-17.68c1.63-4.85,1.58-5.69-1.07-4.44l-7,3.15Z" style="fill:#ed1a37"/><path d="M115.56,116L114,120.92c-1.14,3.76-.64,4.86,1.87,3.68l15-7a23.83,23.83,0,0,0,7.79-5.55l-5.15,13-31.13,14.56c-7,3.28-7.45-.7-4-11.64L105,107.24c3.47-10.93,7-16.77,14-20.06l23.77-11.11c7-3.29,7.45.69,4,11.64l-5.09,16.07Zm14.19-15.38L132,93.49c1-3,.82-4-0.91-3.19l-6.43,3c-1.72.81-2.64,2.28-3.6,5.29l-2.26,7.15Z" style="fill:#ed1a37"/><path d="M214.54,52c1.89-2.69,4.39-6.52,5.41-8.42a17.17,17.17,0,0,0,1.87-4.49l15.54-7.26a167.75,167.75,0,0,0-13.29,16.76L189.14,99l-19.46,9.09,12.88-40.05-0.16.07L155,115l-16.36,7.65,12.53-39.31c2.59-8.06,2.7-9.25,3-12.62l18.41-8.6c-0.89,1.66-1.57,2.83-2.37,4.63a53.13,53.13,0,0,0-2.43,6.73l-7.07,22.7,0.14-.06,23-39.24,21.61-10.1L194.71,80.26l0.17-.07Z" style="fill:#ed1a37"/><path d="M205.09,100.77a3.23,3.23,0,1,0,3.23,3.22A3.13,3.13,0,0,0,205.09,100.77Zm0,5.72a2.49,2.49,0,1,1,0-5A2.49,2.49,0,0,1,205.08,106.48Z" style="fill:#231f20"/><path d="M205.68,104.21a0.81,0.81,0,0,0,.84-0.92c0-.78-0.54-1-1.42-1h-1.3v3.49h0.75v-1.48h0.34l0.81,1.48h0.87Zm-0.49-.53h-0.64v-0.84h0.5c0.29,0,.69,0,0.69.4S205.53,103.68,205.19,103.68Z" style="fill:#231f20"/></svg>